<?xml version="1.0" encoding="UTF-8" standalone="no"?>
<!-- Created with Inkscape (http://www.inkscape.org/) -->

<svg
   xmlns:dc="http://purl.org/dc/elements/1.1/"
   xmlns:cc="http://creativecommons.org/ns#"
   xmlns:rdf="http://www.w3.org/1999/02/22-rdf-syntax-ns#"
   xmlns:svg="http://www.w3.org/2000/svg"
   xmlns="http://www.w3.org/2000/svg"
   xmlns:sodipodi="http://sodipodi.sourceforge.net/DTD/sodipodi-0.dtd"
   xmlns:inkscape="http://www.inkscape.org/namespaces/inkscape"
   width="8.838994mm"
   height="8.838995mm"
   viewBox="0 0 8.838994 8.838995"
   version="1.1"
   id="svg8"
   sodipodi:docname="loading.svg"
   inkscape:version="0.92.4 (5da689c313, 2019-01-14)">
  <defs
     id="defs2" />
  <sodipodi:namedview
     id="base"
     pagecolor="#ffffff"
     bordercolor="#666666"
     borderopacity="1.0"
     inkscape:pageopacity="0.0"
     inkscape:pageshadow="2"
     inkscape:zoom="5.6568543"
     inkscape:cx="64.144219"
     inkscape:cy="-8.5498661"
     inkscape:document-units="mm"
     inkscape:current-layer="layer1"
     showgrid="false"
     guidetolerance="20"
     objecttolerance="20"
     inkscape:snap-path-clip="false"
     gridtolerance="10"
     inkscape:snap-perpendicular="false"
     inkscape:snap-tangential="false"
     fit-margin-top="0"
     fit-margin-left="0"
     fit-margin-right="0"
     fit-margin-bottom="0"
     inkscape:window-width="1366"
     inkscape:window-height="745"
     inkscape:window-x="1016"
     inkscape:window-y="-8"
     inkscape:window-maximized="1" />
  <metadata
     id="metadata5">
    <rdf:RDF>
      <cc:Work
         rdf:about="">
        <dc:format>image/svg+xml</dc:format>
        <dc:type
           rdf:resource="http://purl.org/dc/dcmitype/StillImage" />
        <dc:title></dc:title>
      </cc:Work>
    </rdf:RDF>
  </metadata>
  <g
     inkscape:label="Layer 1"
     inkscape:groupmode="layer"
     id="layer1"
     transform="translate(-77.485191,-66.056427)">
    <g
       id="g900"
       style="fill:#d50303;fill-opacity:1"
       transform="matrix(0.24359483,0,0,0.24359489,58.610199,54.292834)">
      <path
         id="path815"
         transform="scale(0.26458333)"
         d="m 361.42383,182.51953 a 68.571425,68.571425 0 0 0 -68.56641,68.57227 v 0.0195 a 68.571425,68.571425 0 0 0 68.58594,68.55078 68.571425,68.571425 0 0 0 66.38281,-51.66992 l -5.71484,4.96484 -1.00391,-7.20508 1.98242,0.64453 v -0.002 l -2.07617,-0.67578 A 61.428568,61.428568 0 0 1 361.44141,312.51953 61.428568,61.428568 0 0 1 300,251.10938 v -0.0176 a 61.428568,61.428568 0 0 1 61.42383,-61.42969 61.428568,61.428568 0 0 1 61.43359,61.41992 61.428568,61.428568 0 0 1 -1.01367,10.82227 l 6.77734,2.20703 A 68.571425,68.571425 0 0 0 430,251.08008 68.571425,68.571425 0 0 0 361.42383,182.51953 Z"
         style="opacity:1;vector-effect:none;fill:#d50303;fill-opacity:1;fill-rule:nonzero;stroke:none;stroke-width:15.49606228;stroke-linecap:butt;stroke-linejoin:miter;stroke-miterlimit:4;stroke-dasharray:none;stroke-dashoffset:0;stroke-opacity:1;paint-order:stroke fill markers"
         inkscape:connector-curvature="0" />
      <path
         inkscape:connector-curvature="0"
         id="path825"
         d="m 111.61282,69.295512 1.79318,0.583017 -1.52697,1.324581 z"
         inkscape:transform-center-y="0.12358842"
         inkscape:transform-center-x="-0.21012531"
         style="opacity:1;vector-effect:none;fill:#d50303;fill-opacity:1;fill-rule:nonzero;stroke:none;stroke-width:0.59058785;stroke-linecap:butt;stroke-linejoin:miter;stroke-miterlimit:4;stroke-dasharray:none;stroke-dashoffset:0;stroke-opacity:1;paint-order:stroke fill markers" />
    </g>
  </g>
</svg>
